<svg xmlns="http://www.w3.org/2000/svg" version="1.1" xmlns:xlink="http://www.w3.org/1999/xlink" xmlns:svgjs="http://svgjs.dev/svgjs" width="100%" height="100%" viewBox="0 0 1000 600"><rect width="1000" height="600" x="0" y="0" fill="#ffd617"/><g><circle r="166.66666666666666" cx="451.68741861979174" cy="473.90964924521995" fill="#004494" transform="matrix(0.43856464702329423,0,0,0.43856464702329423,0,92.16000484602084)"/><path d="M325.24277363284614 416.04850436740327L325.24277363284614 398.9096673490938L432.6911804241525 398.9096673490938L432.6911804241525 441.3768349363335L412.40037337948723 441.3768349363335L412.40037337948723 416.04850436740327L358.8731681104813 416.04850436740327L358.8731681104813 464.2286176274128L410.4303921130149 464.2286176274128L410.4303921130149 480.83274544482265L358.8731681104813 480.83274544482265L358.8731681104813 531.8834028359777L373.90131091471324 531.8834028359777L373.90131091471324 548.9096694962029L325.24277363284614 548.9096694962029L325.24277363284614 531.8834028359777L339.4829239304891 531.8834028359777L339.4829239304891 416.04850436740327L325.24277363284614 416.04850436740327ZM529.445403197466 548.9096694962029L529.445403197466 531.8834028359777L541.9125703552838 531.8834028359777L530.0363975774078 497.859012105048L472.3440890592888 497.859012105048L460.777484766144 531.8834028359777L476.2277664131915 531.8834028359777L476.2277664131915 548.9096694962029L427.54108654180334 548.9096694962029L427.54108654180334 531.8834028359777L440.5992480795629 531.8834028359777L487.28780409495766 398.9096673490938L516.4716694282695 398.9096673490938L563.0757976751013 531.8834028359777L578.1320830688542 531.8834028359777L578.1320830688542 548.9096694962029L529.445403197466 548.9096694962029ZM500.936960012659 414.3599489961412L478.00074955301665 481.42373982476437L524.2953093151168 481.42373982476437L500.936960012659 414.3599489961412Z " fill="#ffd617" transform="matrix(0.43856464702329423,0,0,0.43856464702329423,0,92.16000484602084)"/><path d="M701.6874300312695 419.0476811534908L701.6874300312695 402.67377928919177L804.3402335089278 402.67377928919177L804.3402335089278 443.24556568201166L784.955039347746 443.24556568201166L784.955039347746 419.0476811534908L733.8168433774721 419.0476811534908L733.8168433774721 465.0774348344104L783.0729816621945 465.0774348344104L783.0729816621945 480.94049246977403L733.8168433774721 480.94049246977403L733.8168433774721 529.7126730639259L748.1742548643945 529.7126730639259L748.1742548643945 545.9790287747649L701.6874300312695 545.9790287747649L701.6874300312695 529.7126730639259L715.2920184439712 529.7126730639259L715.2920184439712 419.0476811534908L701.6874300312695 419.0476811534908ZM896.7761524078771 545.9790287747649L896.7761524078771 529.7126730639259L908.6868889035824 529.7126730639259L897.3407697135426 497.206848180613L842.2233660652453 497.206848180613L831.1729987972208 529.7126730639259L845.9337083596184 529.7126730639259L845.9337083596184 545.9790287747649L799.4199969881286 545.9790287747649L799.4199969881286 529.7126730639259L811.8953507894993 529.7126730639259L856.5001179370726 402.67377928919177L884.3814582216015 402.67377928919177L928.9055657540798 529.7126730639259L943.2898637793671 529.7126730639259L943.2898637793671 545.9790287747649L896.7761524078771 545.9790287747649ZM869.5400890441088 417.43448885158944L847.627560276615 481.5051097754395L891.8559158870779 481.5051097754395L869.5400890441088 417.43448885158944ZM1005.1826750956503 499.0889058661646L953.1034502826006 499.0889058661646L953.1034502826006 482.8494366936907L1005.1826750956503 482.8494366936907L1005.1826750956503 499.0889058661646ZM1149.4289534239992 440.5031387687793L1129.102730420042 440.5031387687793Q1122.7843939042614 429.721636884405 1112.3255304802674 423.5646195988147Q1101.8935535946384 417.43448885158944 1089.0417882561574 417.43448885158944L1089.0417882561574 417.43448885158944Q1078.0720806032282 417.43448885158944 1068.98443063585 422.05897345037346Q1059.9236672068373 426.6834580491574 1053.444011460867 434.4805541750141Q1046.964355714896 442.2776503008708 1043.388446112348 452.54830795630966Q1039.7856499714349 462.79207907338343 1039.7856499714349 474.1381982634232L1039.7856499714349 474.1381982634232Q1039.7856499714349 487.5545809075697 1043.7648576494585 497.90589817810366Q1047.717178789117 508.2572154486375 1054.1161749199923 515.1132827317183Q1060.488284512503 521.9693500147993 1069.2801825578654 526.5669480752183Q1078.0720806032282 531.1376595972722 1089.0417882561574 531.1376595972722L1089.0417882561574 531.1376595972722Q1103.963817048745 531.1376595972722 1115.0410708551349 523.9051807770809Q1126.0914381231592 516.6727019568898 1133.9423073257458 500.13748086240054L1133.9423073257458 500.13748086240054L1150.5581880353302 507.9883500649873Q1146.982278432782 518.178348105331 1138.3785861559745 527.6961826865493Q1129.7748938791674 537.1871307294023 1117.1651073859716 542.9946230162473Q1104.5284343544108 548.8021153030923 1089.2299940247126 548.8021153030923L1089.2299940247126 548.8021153030923Q1074.5768306157747 548.8021153030923 1062.2896825829594 543.2903749382626Q1050.002534550144 537.7517480350677 1040.4040403538306 527.5348634563591Q1030.8055461575173 517.3448654160153 1025.7508769448932 503.3369789278383Q1020.6962077322687 489.35597897802626 1020.6962077322687 474.1381982634232L1020.6962077322687 474.1381982634232Q1020.6962077322687 458.839757933725 1025.7508769448932 445.2082829826583Q1030.8055461575173 431.60369456995664 1039.92008266326 421.548129221438Q1049.0615057073678 411.4656773345543 1061.671292200564 405.6581850477093Q1074.2810786937598 399.8506927608643 1089.0417882561574 399.8506927608643L1089.0417882561574 399.8506927608643Q1102.1624189782888 399.8506927608643 1111.7340266362366 403.5879215936025Q1121.27874775582 407.32515042634077 1127.919722731981 412.4604792540602Q1134.5875842465066 417.6226946201446 1139.4271611522108 423.6721657522748L1139.4271611522108 423.6721657522748L1149.4289534239992 423.6721657522748L1149.4289534239992 440.5031387687793ZM1223.5551396963679 545.9790287747649L1223.5551396963679 536.8913788073871Q1217.9627397164431 542.1073672502016 1211.2142185868224 545.4144114690994Q1204.4388109188367 548.7214556879973 1195.835118642029 548.7214556879973L1195.835118642029 548.7214556879973Q1188.6564128985679 548.7214556879973 1182.6607148431676 546.4629864653352Q1176.6650167877679 544.1776307043083 1172.3093975726338 540.252196103015Q1167.9537783575001 536.3267615017216 1165.560876443013 531.1376595972722Q1163.141087990161 525.9485576928228 1163.141087990161 520.0872923292477L1163.141087990161 520.0872923292477Q1163.141087990161 513.8496154285623 1164.9962591373478 509.0100385228581Q1166.8245437461692 504.197348155519 1169.8896091197817 500.64832509133595Q1172.9815610317596 497.09930202715293 1177.095201401608 494.70640011266585Q1181.2088417714567 492.2866116598138 1185.6720071400505 490.83473858810254Q1190.1620590470093 489.35597897802626 1194.8672032608883 488.7375885956307Q1199.5454609364024 488.1191982132352 1203.7935339980759 488.1191982132352L1203.7935339980759 488.1191982132352Q1210.5958282044267 488.1191982132352 1215.2203128032106 488.5493828270756Q1219.8447974019946 488.9795674409159 1223.635799311463 489.7323905151366L1223.635799311463 489.7323905151366L1223.743345464923 481.6933155439947Q1223.743345464923 476.5042136395452 1222.2108127781166 472.68632519171194Q1220.7051666296757 468.8415502055136 1217.9627397164431 466.34110213756645Q1215.2203128032106 463.84065406961935 1211.4024243553777 462.60387330482826Q1207.5576493691792 461.39397907840225 1202.8525051553002 461.39397907840225L1202.8525051553002 461.39397907840225Q1198.3893397867064 461.39397907840225 1194.3294724935877 461.98548292243277Q1190.2696052004694 462.60387330482826 1186.7205821362863 463.59867522433416Q1183.1715590721033 464.59347714383995 1180.2140398519505 465.8840309853611Q1177.229634093433 467.1476982885172 1175.1593706393264 468.5726848218634L1175.1593706393264 468.5726848218634L1169.3787648908465 456.3661964041429Q1172.8740148782995 454.107727181481 1177.0414283248779 452.1718964191993Q1181.2088417714567 450.2360656569176 1185.7795532935106 448.86485220030147Q1190.3771513539295 447.49363874368527 1195.1360686445387 446.6870425927346Q1199.9218724735128 445.88044644178393 1204.5463570722968 445.88044644178393L1204.5463570722968 445.88044644178393Q1213.0425031956438 445.88044644178393 1219.8447974019946 447.92382335752563Q1226.6739781467104 449.9403137349024 1231.3791223605895 454.188386796576Q1236.1111531128336 458.4633463966147 1238.6653742575108 465.0236617576804Q1241.2195954021881 471.58397711874596 1241.2195954021881 480.75228670121885L1241.2195954021881 480.75228670121885L1241.112049248728 529.7126730639259L1252.0010972865625 529.7126730639259L1252.0010972865625 545.9790287747649L1223.5551396963679 545.9790287747649ZM1199.7336667049576 533.9876326639646L1199.7336667049576 533.9876326639646Q1203.2289166924106 533.9876326639646 1206.7241666798636 533.1272634362838Q1210.2194166673162 532.2668942086032 1213.3382551176592 530.8150211368918Q1216.4570935680017 529.3362615268156 1219.091974327774 527.4004307645339Q1221.7537416259115 525.4646000022523 1223.5551396963679 523.3943365481455L1223.5551396963679 523.3943365481455L1223.635799311463 501.2667154737315L1203.2289166924106 501.2667154737315Q1198.120474403056 501.2667154737315 1193.8992878797476 502.39595008506245Q1189.7049878948037 503.5251846963934 1186.6399225211912 505.7029943039603Q1183.5479706092137 507.88080391152715 1181.854118692217 511.10718851532994Q1180.1602667752209 514.3066865807677 1180.1602667752209 518.4741000273463L1180.1602667752209 518.4741000273463Q1180.1602667752209 522.3457615519096 1181.5852533085667 525.2226211569671Q1182.983353303548 528.1263673003896 1185.5913475249554 530.0621980626713Q1188.1993417463627 531.9980288249528 1191.7752513489108 532.9928307444588Q1195.378047489824 533.9876326639646 1199.7336667049576 533.9876326639646ZM1271.0905395257287 415.1491330905625L1271.0905395257287 398.90966391808854L1302.843541334821 398.90966391808854L1302.843541334821 529.7126730639259L1317.6042508972187 529.7126730639259L1317.6042508972187 545.9790287747649L1271.0905395257287 545.9790287747649L1271.0905395257287 529.7126730639259L1285.259745244096 529.7126730639259L1285.259745244096 415.1491330905625L1271.0905395257287 415.1491330905625ZM1423.26834667176 474.1381982634232L1405.4963448124795 474.1381982634232Q1401.5171371344559 467.0401521350571 1395.4407794639606 463.7331079161592Q1389.3375352551006 460.4260636972614 1381.2984602839588 460.4260636972614L1381.2984602839588 460.4260636972614Q1375.1683295367334 460.4260636972614 1369.7641353253634 462.9802848419386Q1364.386827652359 465.5345059866158 1360.3538468976058 470.2665367388599Q1356.3477526812171 474.9985674911039 1354.0355103818251 481.7470886207247Q1351.7232680824332 488.4956097503455 1351.7232680824332 496.83043664350265L1351.7232680824332 496.83043664350265Q1351.7232680824332 505.05771738319976 1354.0355103818251 511.6718058209954Q1356.3477526812171 518.2858942587911 1360.4076199743358 522.9641519343052Q1364.467487267454 527.6424096098192 1369.8179084020935 530.1428576777663Q1375.1683295367334 532.6433057457134 1381.2984602839588 532.6433057457134L1381.2984602839588 532.6433057457134Q1390.3861102513365 532.6433057457134 1397.0808583042271 528.2607999922147Q1403.8024928954828 523.8514077003508 1407.7548140351414 515.3552615770036L1407.7548140351414 515.3552615770036L1422.3273178289837 522.5339673204649Q1419.4773447622915 528.5834384525949 1415.3368178540777 533.3961288199341Q1411.1694044074993 538.2357057256384 1405.9265294263196 541.6234095596312Q1400.6836544451403 545.0379999319891 1394.3922044677252 546.8662845408107Q1388.1007544903096 548.7214556879973 1381.1102545154035 548.7214556879973L1381.1102545154035 548.7214556879973Q1370.8933699366949 548.7214556879973 1362.2627911215222 544.903567240164Q1353.605325767985 541.0587922539657 1347.3138757905695 534.1758384325199Q1341.0224258131539 527.2659980727088 1337.5271758257009 517.7212769531257Q1334.0319258382478 508.1765558335424 1334.0319258382478 496.83043664350265L1334.0319258382478 496.83043664350265Q1334.0319258382478 485.48431745346295 1337.715381594256 475.9395963338797Q1341.3988373502643 466.3948752142965 1347.8516065578701 459.5388079312156Q1354.2774892271104 452.6827406481347 1362.8811815039176 448.8110791235714Q1371.45798724236 444.9394175990081 1381.2984602839588 444.9394175990081L1381.2984602839588 444.9394175990081Q1390.5743160198917 444.9394175990081 1398.8284832979534 448.13891566444585Q1407.1095371143806 451.36530026824863 1413.3472140150661 457.8718425525842L1413.3472140150661 457.8718425525842L1423.26834667176 457.8718425525842L1423.26834667176 474.1381982634232ZM1499.4647963982352 464.2977252218247L1499.4647963982352 448.05825604935075L1531.0295924387724 448.05825604935075L1531.0295924387724 529.7126730639259L1541.8917539382414 529.7126730639259L1541.8917539382414 545.9790287747649L1513.338250194587 545.9790287747649L1513.338250194587 536.8913788073871Q1506.7241617567915 541.9998210967415 1498.9270656309345 544.8497941634339Q1491.129969505078 547.6728806917613 1482.2574118446205 547.6728806917613L1482.2574118446205 547.6728806917613Q1474.890500332604 547.6728806917613 1468.8679157388387 545.5488441609245Q1462.8722176834385 543.4248076300878 1458.677917698495 538.9347557231288Q1454.4567311751866 534.44470381617 1452.1982619525247 527.5348634563591Q1449.9129061914978 520.6519096349132 1449.9129061914978 511.10718851532994L1449.9129061914978 511.10718851532994L1449.9129061914978 464.2977252218247L1436.6847293159062 464.2977252218247L1436.6847293159062 448.05825604935075L1468.2495253564434 448.05825604935075L1468.2495253564434 509.0100385228581Q1468.2495253564434 520.2754980978028 1473.4655137992577 526.0292173079179Q1478.6546157037073 531.8098230563978 1488.3875425918454 531.8098230563978L1488.3875425918454 531.8098230563978Q1494.1681483403254 531.8098230563978 1500.540257932836 529.7126730639259Q1506.9123675253463 527.6424096098192 1512.5854271203666 523.958953853811L1512.5854271203666 523.958953853811L1512.5854271203666 464.2977252218247L1499.4647963982352 464.2977252218247ZM1567.3264192315532 415.1491330905625L1567.3264192315532 398.90966391808854L1599.0794210406457 398.90966391808854L1599.0794210406457 529.7126730639259L1613.8401306030437 529.7126730639259L1613.8401306030437 545.9790287747649L1567.3264192315532 545.9790287747649L1567.3264192315532 529.7126730639259L1581.4956249499205 529.7126730639259L1581.4956249499205 415.1491330905625L1567.3264192315532 415.1491330905625ZM1688.5847072578076 545.9790287747649L1688.5847072578076 536.8913788073871Q1683.019193816248 542.1073672502016 1676.2706726866272 545.4144114690994Q1669.4952650186415 548.7214556879973 1660.891572741834 548.7214556879973L1660.891572741834 548.7214556879973Q1653.7128669983726 548.7214556879973 1647.7171689429724 546.4629864653352Q1641.7214708875727 544.1776307043083 1637.3658516724386 540.252196103015Q1633.010232457305 536.3267615017216 1630.6173305428179 531.1376595972722Q1628.1975420899657 525.9485576928228 1628.1975420899657 520.0872923292477L1628.1975420899657 520.0872923292477Q1628.1975420899657 513.8496154285623 1630.0258266987871 509.0100385228581Q1631.880997845974 504.197348155519 1634.9460632195864 500.64832509133595Q1638.0380151315644 497.09930202715293 1642.1247689630477 494.70640011266585Q1646.238409332896 492.2866116598138 1650.7284612398553 490.83473858810254Q1655.218513146814 489.35597897802626 1659.896770822328 488.7375885956307Q1664.5750284978421 488.1191982132352 1668.8499880978807 488.1191982132352L1668.8499880978807 488.1191982132352Q1675.6522823042314 488.1191982132352 1680.2767669030154 488.5493828270756Q1684.9012515017994 488.9795674409159 1688.6922534112678 489.7323905151366L1688.6922534112678 489.7323905151366L1688.7729130263629 481.6933155439947Q1688.7729130263629 476.5042136395452 1687.2672668779214 472.68632519171194Q1685.7616207294805 468.8415502055136 1683.019193816248 466.34110213756645Q1680.2767669030154 463.84065406961935 1676.458878455182 462.60387330482826Q1672.614103468984 461.39397907840225 1667.88207271674 461.39397907840225L1667.88207271674 461.39397907840225Q1663.4457938865112 461.39397907840225 1659.3859265933925 461.98548292243277Q1655.3260593002742 462.60387330482826 1651.7770362360911 463.59867522433416Q1648.228013171908 464.59347714383995 1645.2436074133902 465.8840309853611Q1642.286088193238 467.1476982885172 1640.1889382007662 468.5726848218634L1640.1889382007662 468.5726848218634L1634.4352189906513 456.3661964041429Q1637.9304689781043 454.107727181481 1642.0978824246827 452.1718964191993Q1646.238409332896 450.2360656569176 1650.8360073933154 448.86485220030147Q1655.4067189153693 447.49363874368527 1660.192522744343 446.6870425927346Q1664.9514400349522 445.88044644178393 1669.6028111721012 445.88044644178393L1669.6028111721012 445.88044644178393Q1678.0989572954486 445.88044644178393 1684.9012515017994 447.92382335752563Q1691.7035457081502 449.9403137349024 1696.4355764603943 454.188386796576Q1701.1676072126384 458.4633463966147 1703.7218283573156 465.0236617576804Q1706.276049501993 471.58397711874596 1706.276049501993 480.75228670121885L1706.276049501993 480.75228670121885L1706.1685033485328 529.7126730639259L1717.0575513863673 529.7126730639259L1717.0575513863673 545.9790287747649L1688.5847072578076 545.9790287747649ZM1664.7632342663974 533.9876326639646L1664.7632342663974 533.9876326639646Q1668.2853707922154 533.9876326639646 1671.7806207796684 533.1272634362838Q1675.2758707671214 532.2668942086032 1678.394709217464 530.8150211368918Q1681.5135476678065 529.3362615268156 1684.148428427579 527.4004307645339Q1686.8101957257163 525.4646000022523 1688.5847072578076 523.3943365481455L1688.5847072578076 523.3943365481455L1688.6922534112678 501.2667154737315L1668.2853707922154 501.2667154737315Q1663.1769285028608 501.2667154737315 1658.9557419795524 502.39595008506245Q1654.7614419946085 503.5251846963934 1651.696376620996 505.7029943039603Q1648.6044247090185 507.88080391152715 1646.9105727920219 511.10718851532994Q1645.2167208750252 514.3066865807677 1645.2167208750252 518.4741000273463L1645.2167208750252 518.4741000273463Q1645.2167208750252 522.3457615519096 1646.6148208700065 525.2226211569671Q1648.0398074033528 528.1263673003896 1650.6478016247602 530.0621980626713Q1653.255795846167 531.9980288249528 1656.8317054487152 532.9928307444588Q1660.4345015896283 533.9876326639646 1664.7632342663974 533.9876326639646ZM1765.2651146748535 416.49346000881366L1765.2651146748535 448.05825604935075L1788.2262184385831 448.05825604935075L1788.2262184385831 462.33500792117803L1765.0769089062983 462.33500792117803L1764.7811569842834 518.8505115644566Q1764.7811569842834 524.6042307745715 1766.098597364169 528.2070269154847Q1767.4160377440558 531.8098230563978 1770.346670425843 533.1810365130139Q1773.2773031076304 534.5522499696301 1776.9607588636386 534.5522499696301L1776.9607588636386 534.5522499696301Q1780.9399665416622 534.5522499696301 1783.9781453769097 533.8263134337744Q1786.9894376737925 533.1272634362838 1790.5922338147052 531.4334115192873L1790.5922338147052 531.4334115192873L1794.652101107824 543.2366018615326Q1790.108276124135 545.6026172376546 1785.1073799882406 546.9738306942708Q1780.1064838523462 548.3450441508869 1773.2773031076304 548.3450441508869L1773.2773031076304 548.3450441508869Q1766.85142043839 548.3450441508869 1762.092503147781 546.7856249257156Q1757.3066993188067 545.2262057005443 1754.053428176639 541.5427499445361Q1750.8001570344713 537.8592941885279 1749.1869647325698 531.6485038262076Q1747.5737724306682 525.4646000022523 1747.5737724306682 516.2156308046843L1747.5737724306682 516.2156308046843L1747.8695243526836 462.33500792117803L1732.27533210097 462.33500792117803L1732.27533210097 448.05825604935075L1748.0577301212388 448.05825604935075L1748.0577301212388 424.61319459505063L1765.2651146748535 416.49346000881366ZM1807.6114125997651 497.01864241205783L1807.6114125997651 497.01864241205783Q1807.6920722148602 485.3767713000029 1811.321754894138 475.8320501804196Q1814.9783241117811 466.28732906083644 1821.484866396117 459.43126177775554Q1828.0182952188175 452.60208103303967 1836.998399032735 448.8917387386665Q1845.978502846653 445.2082829826583 1856.7600047310275 445.2082829826583L1856.7600047310275 445.2082829826583Q1867.6221662304965 445.2082829826583 1876.6560431211442 448.8917387386665Q1885.6630334734273 452.60208103303967 1892.1158026810326 459.3506021626605Q1898.5416853502734 466.09912329228126 1902.117594952821 475.64384441186445Q1905.7203910937342 485.1885655314477 1905.7203910937342 496.83043664350265L1905.7203910937342 496.83043664350265Q1905.7203910937342 508.2572154486375 1902.117594952821 517.8557096449508Q1898.5416853502734 527.454203841264 1892.1158026810326 534.3640442010749Q1885.6630334734273 541.2469980225208 1876.6560431211442 545.0917730087192Q1867.6221662304965 548.9096614565524 1856.7600047310275 548.9096614565524L1856.7600047310275 548.9096614565524Q1845.6827509246377 548.9096614565524 1836.7026471107201 545.1186595470842Q1827.722543296802 541.3545441759809 1821.2966606275618 534.4984768929Q1814.870777958321 527.6424096098192 1811.2948683557734 518.0976884902359Q1807.6920722148602 508.55296737065277 1807.6114125997651 497.01864241205783ZM1826.2168971483607 497.01864241205783L1826.2168971483607 497.01864241205783Q1826.2168971483607 505.43412892031006 1828.6366856012132 512.2364231266608Q1831.0295875157003 519.0387173330118 1835.2507740390088 523.8245211619858Q1839.4450740239522 528.5834384525949 1844.9837009271473 531.1914326740023Q1850.522327830342 533.7725403570444 1856.7600047310275 533.7725403570444L1856.7600047310275 533.7725403570444Q1863.266547015363 533.7725403570444 1868.8858335336527 531.2452057507322Q1874.5320065903074 528.690984606055 1878.6725334985208 523.9051807770809Q1882.8399469450997 519.1462634864718 1885.2059623212217 512.3170827417559Q1887.5719776973438 505.51478853540516 1887.5719776973438 497.01864241205783L1887.5719776973438 497.01864241205783Q1887.5719776973438 488.1191982132352 1885.2059623212217 481.2362443917893Q1882.8399469450997 474.32640403197837 1878.7263065752509 469.70191943319435Q1874.6126662054025 465.0774348344104 1868.9396066103827 462.7114194582884Q1863.266547015363 460.34540408216634 1856.7600047310275 460.34540408216634L1856.7600047310275 460.34540408216634Q1850.522327830342 460.34540408216634 1844.9837009271473 462.7114194582884Q1839.4450740239522 465.0774348344104 1835.2507740390088 469.70191943319435Q1831.0295875157003 474.32640403197837 1828.6366856012132 481.2362443917893Q1826.2168971483607 488.1191982132352 1826.2168971483607 497.01864241205783ZM1995.145017695801 447.49363874368527L1995.145017695801 468.76089059041857L1977.1848100679658 468.76089059041857L1977.1848100679658 462.7114194582884Q1974.0659716176228 462.7114194582884 1970.7858139370906 463.89442714634936Q1967.5325427949224 465.0774348344104 1964.7094562665952 467.47033674889747Q1961.8594831999026 469.8901252017495 1959.7354466690658 473.6273540344877Q1957.6114101382286 477.3645828672259 1956.6703812954534 482.44613861821534L1956.6703812954534 482.44613861821534L1956.6703812954534 529.7126730639259L1973.2862620050373 529.7126730639259L1973.2862620050373 545.9790287747649L1924.7022871794406 545.9790287747649L1924.7022871794406 529.7126730639259L1938.2262159770476 529.7126730639259L1938.3337621305077 464.2977252218247L1924.7022871794406 464.2977252218247L1924.7022871794406 448.05825604935075L1955.9982178363275 448.05825604935075L1955.9982178363275 461.5821848469574Q1957.6920697533242 458.54400601170977 1959.816106284161 455.93601179030253Q1961.9670293533627 453.3549041072603 1964.548137036405 451.41907334497864Q1967.156131257812 449.483242582697 1970.328742784885 448.38089450973104Q1973.4744677735926 447.30543297513015 1977.1848100679658 447.30543297513015L1977.1848100679658 447.30543297513015Q1982.0781600504001 447.30543297513015 1986.4337792655338 447.30543297513015Q1990.7893984806674 447.30543297513015 1995.145017695801 447.49363874368527L1995.145017695801 447.49363874368527Z " fill="#004494" transform="matrix(0.43856464702329423,0,0,0.43856464702329423,0,92.16000484602084)"/></g></svg>